<svg width="110" height="110" viewBox="0 0 110 110" fill="none" xmlns="http://www.w3.org/2000/svg">
<g clip-path="url(#clip0)">
<path d="M81.5038 6.52502L110.295 23.3766L81.3057 39.885L81.5038 6.52502Z" fill="#13303C"/>
<path d="M55 0C42.8926 -1.44379e-07 31.1236 3.99506 21.5181 11.3656C11.9127 18.7361 5.0077 29.0701 1.87408 40.7649C-1.25954 52.4598 -0.446669 64.8618 4.18662 76.0476C8.81992 87.2334 17.0147 96.5777 27.5 102.631C37.9853 108.685 50.1751 111.11 62.1789 109.529C74.1827 107.949 85.3297 102.452 93.8909 93.8909C102.452 85.3297 107.949 74.1827 109.529 62.1789C111.11 50.1751 108.685 37.9853 102.631 27.5L89.4867 35.0891C93.8698 42.6808 95.6254 51.5066 94.4812 60.1978C93.337 68.889 89.3569 76.9597 83.1583 83.1583C76.9597 89.3569 68.889 93.337 60.1978 94.4812C51.5066 95.6254 42.6808 93.8698 35.0891 89.4867C27.4974 85.1037 21.5641 78.338 18.2094 70.2392C14.8547 62.1403 14.2662 53.1608 16.535 44.6933C18.8039 36.2259 23.8033 28.7437 30.758 23.4072C37.7126 18.0707 46.2338 15.1781 55 15.1781V0Z" fill="#13303C"/>
</g>
<defs>
<clipPath id="clip0">
<rect width="110" height="110" fill="white"/>
</clipPath>
</defs>
</svg>
