<svg id="472446d8-31d5-4808-8236-53d0e6b5939f" data-name="7f228096-b8fc-4ff3-b1a2-76498ad3b10f" xmlns="http://www.w3.org/2000/svg" viewBox="0 0 110 110"><title>icon_features_1_110px</title><rect width="110" height="110" fill="none"/><path d="M45.65,15.57a153.69,153.69,0,0,0,18.2,8.13,109.1,109.1,0,0,0,13.34,3.93C76.42,48.07,71.26,65,61.8,78.08A67.55,67.55,0,0,1,45.65,94,66.22,66.22,0,0,1,29.51,78.09C20,65,14.86,48,14.1,27.65a110.81,110.81,0,0,0,13.38-3.94,149.93,149.93,0,0,0,18.17-8.14M45.65,0A2.91,2.91,0,0,0,44.2.42,143.41,143.41,0,0,1,22.65,10.55a97.07,97.07,0,0,1-20,5A3.2,3.2,0,0,0,0,18.42Q-1,59.9,18.16,86.28a81,81,0,0,0,26,23.28,2.4,2.4,0,0,0,1.49.44,3.21,3.21,0,0,0,1.59-.43,83,83,0,0,0,25.9-23.28Q92.22,59.93,91.25,18.43a3,3,0,0,0-2.53-2.91,96.19,96.19,0,0,1-20-5A147.62,147.62,0,0,1,47.11.42,2.94,2.94,0,0,0,45.65,0Z" fill="#13303c"/></svg>