<svg xmlns="http://www.w3.org/2000/svg" data-name="Layer 1" viewBox="0 0 35 35" x="0px" y="0px"><title>Artboard 6</title><path d="M29.4999,5.13342a13.09994,13.09994,0,0,1-6.123-2.04931.49871.49871,0,0,0-.55469,0A13.09419,13.09419,0,0,1,16.7001,5.13342a.49972.49972,0,0,0-.5.5V9.9c0,6.63282,6.40332,9.91114,6.67578,10.04737a.50058.50058,0,0,0,.44726,0C23.59561,19.81116,29.9999,16.53284,29.9999,9.9V5.63342A.49972.49972,0,0,0,29.4999,5.13342ZM26.83,9.36389l-4.2666,4.2666a.74972.74972,0,0,1-1.06055,0L19.37,11.49719a.74992.74992,0,1,1,1.06055-1.06054l1.60254,1.603,3.73632-3.73633A.74992.74992,0,0,1,26.83,9.36389Z"/><path d="M23.77051,20.8418a1.50169,1.50169,0,0,1-1.3418,0A15.36851,15.36851,0,0,1,17.43445,16.538H6.85669l1.9978-4.787a.79325.79325,0,0,1,.7334-.48877h5.69873A10.9929,10.9929,0,0,1,15.2002,9.8999V9.26221H9.58789A2.78806,2.78806,0,0,0,7.00879,10.98L5.55847,14.45544a1.51373,1.51373,0,0,0-.81714-.24853h-1.217a1.52408,1.52408,0,1,0,0,3.04816H4.2514a2.58645,2.58645,0,0,0-.81726,1.88287v8.69672A1.16731,1.16731,0,0,0,4.60034,29H7.46863a1.16731,1.16731,0,0,0,1.1662-1.16534V26.48981H21.36517v1.34485A1.16731,1.16731,0,0,0,22.53137,29h2.86829a1.16731,1.16731,0,0,0,1.1662-1.16534V19.13794c0-.075-.01685-.14508-.02314-.21832A15.01357,15.01357,0,0,1,23.77051,20.8418ZM7.55878,22.45532a1.79309,1.79309,0,1,1,1.79315-1.79309A1.79532,1.79532,0,0,1,7.55878,22.45532Zm11.0274,1.95947H11.41382a.44827.44827,0,1,1,0-.89654h7.17236a.44827.44827,0,1,1,0,.89654Z"/></svg>