<svg xmlns="http://www.w3.org/2000/svg" xmlns:xlink="http://www.w3.org/1999/xlink" version="1.1" x="0px" y="0px" viewBox="0 0 1000 1035.87375" enable-background="new 0 0 1000 828.699" xml:space="preserve"><path fill='rgb(53, 167, 202)' d="M989.94,700.604c0,47.13-25.723,91.052-67.106,114.616l-19.016,10.711v-99.619l-44.736-25.708l-45.857,25.708v98.55  l-17.893-8.57c-46.977-23.567-76.056-67.484-76.056-115.688c0-46.058,23.488-85.692,59.279-109.259V244.289  c-36.91-23.568-61.516-63.198-61.516-109.26c0-53.559,39.146-95.334,72.699-114.614l19.012-10.712v99.617l44.74,25.708  l45.854-25.708V10.773l19.016,8.569c44.738,22.494,71.58,66.412,71.58,115.686c0,44.99-24.606,84.623-60.396,108.186v349.203  C965.334,615.982,989.94,655.615,989.94,700.604z M696.584,692.952h-497.03v95.941c0,19.754-15.795,35.274-35.901,35.274H90.417  c-20.104,0-35.901-15.521-35.901-35.274v-95.941C30.104,692.952,10,673.198,10,647.8V451.681c0-43.741,27.284-81.835,64.621-98.766  c-30.157-2.823-54.57-26.808-54.57-57.851c0-32.451,25.85-57.849,58.878-57.849h56.004l31.593-104.409  c14.361-47.972,66.057-86.067,117.754-88.889h440.989c-7.977,10.638-14.938,22.451-20.243,35.273H290.024  c-37.337,0-77.545,29.63-87.598,63.493l-45.955,158.025h599.305v274.68C719.718,604.177,698.057,646.932,696.584,692.952z   M225.403,489.774c0-32.452-25.849-57.848-58.877-57.848c-33.029,0-58.877,25.396-58.877,57.848  c0,32.453,25.848,57.849,58.877,57.849C198.119,547.623,225.403,522.228,225.403,489.774z M670.569,534.924H357.517v77.604h313.052  V534.924z"/></svg>